<?xml version="1.0" encoding="utf-8"?>
<!-- Generator: Adobe Illustrator 23.0.3, SVG Export Plug-In . SVG Version: 6.00 Build 0)  -->
<svg version="1.1" id="Layer_1" xmlns="http://www.w3.org/2000/svg" xmlns:xlink="http://www.w3.org/1999/xlink" x="0px" y="0px"
	 viewBox="0 0 265.9 91.8" style="enable-background:new 0 0 265.9 91.8;" xml:space="preserve">
<style type="text/css">
	.st0{fill:#D3003E;}
	.st1{fill:#008DCA;}
</style>
<path class="st0" d="M12.4,34.1c-3.7,0-5.5,1.2-5.5,3.6c0,1.1,0.5,1.9,1.4,2.5c0.9,0.6,3,1.4,6.4,2.5c3.4,1.1,5.7,2.3,7.1,3.7
	c1.3,1.4,2,3.5,2,6.3c0,3.6-1.1,6.3-3.3,8.2c-2.2,1.9-5.1,2.8-8.6,2.8c-2.6,0-5.9-0.4-9.7-1.2l-1.8-0.4l0.7-5.4
	c4.5,0.6,8,0.9,10.4,0.9c3.6,0,5.4-1.5,5.4-4.5c0-1.1-0.4-1.9-1.2-2.5c-0.8-0.6-2.5-1.3-4.9-2c-3.9-1.1-6.7-2.4-8.3-4
	C0.8,43.2,0,41,0,38.3c0-3.4,1-6,3.1-7.7c2.1-1.7,5-2.5,8.6-2.5c2.5,0,5.7,0.3,9.5,1l1.8,0.4L22.5,35C17.8,34.4,14.4,34.1,12.4,34.1
	z"/>
<path class="st0" d="M36.4,63.1h-7V28.7h7v15.1l4.7-0.5l5.7-14.6h7.9l-7.5,17.2l7.7,17.1h-8L41,49.4l-4.7,0.5V63.1z"/>
<path class="st1" d="M130.8,59.4c-3.6,2.8-8,4.3-13.2,4.3c-5.2,0-8.2-1.4-8.9-4.3c-0.7-2.8,0.5-7.3,3.7-13.4
	c3.1-6.1,6.5-10.6,10.2-13.5c3.7-3,8.1-4.4,13.3-4.4c5.2,0,8.2,1.5,8.8,4.4c0.6,3-0.6,7.5-3.7,13.5
	C137.8,52.1,134.4,56.6,130.8,59.4z M116.4,55c0.1,1.8,1.5,2.7,4.2,2.7s5-0.9,7-2.7c1.9-1.8,3.9-4.7,6.1-8.9
	c2.1-4.2,3.2-7.2,3.1-9.1c0-1.9-1.4-2.8-4.1-2.8c-2.7,0-5,0.9-7,2.8c-2,1.9-4,4.9-6.2,9.1C117.4,50.2,116.4,53.2,116.4,55z"/>
<path class="st1" d="M155.8,28.7h13.5c3.6,0,5.9,0.7,6.9,2.1c1.1,1.4,0.8,3.8-0.9,7c-1,1.9-2.1,3.4-3.2,4.6c-1.2,1.1-2.6,2.1-4.5,3
	c1.2,0.6,1.8,1.6,1.9,2.8c0.1,1.2-0.4,2.9-1.5,5.1c-1.7,3.3-4,5.8-6.8,7.4c-2.8,1.6-6,2.4-9.5,2.4h-13.7L155.8,28.7z M165.8,34.7
	h-6.2l-4.2,8.2h6.2c2.6,0,4.6-1.4,6.1-4.1C169.1,36,168.5,34.7,165.8,34.7z M158.8,48.7h-6.4l-4.3,8.4h6.4c1.5,0,2.8-0.3,3.8-0.9
	c1-0.6,2-1.7,2.8-3.3C162.6,50.1,161.8,48.7,158.8,48.7z"/>
<path class="st1" d="M194.6,59.4c-3.6,2.8-8,4.3-13.2,4.3c-5.2,0-8.2-1.4-8.9-4.3c-0.7-2.8,0.5-7.3,3.7-13.4
	c3.1-6.1,6.5-10.6,10.2-13.5c3.7-3,8.1-4.4,13.3-4.4c5.2,0,8.2,1.5,8.8,4.4c0.6,3-0.6,7.5-3.7,13.5
	C201.5,52.1,198.2,56.6,194.6,59.4z M180.2,55c0.1,1.8,1.5,2.7,4.2,2.7s5-0.9,7-2.7c1.9-1.8,3.9-4.7,6.1-8.9
	c2.1-4.2,3.2-7.2,3.1-9.1c0-1.9-1.4-2.8-4.1-2.8c-2.7,0-5,0.9-7,2.8c-2,1.9-4,4.9-6.2,9.1C181.2,50.2,180.1,53.2,180.2,55z"/>
<path class="st1" d="M212.9,34.9l3.2-6.2h25.3l-3.2,6.2h-9.1l-14.5,28.2h-7l14.5-28.2H212.9z"/>
<path class="st1" d="M238.5,63.4c-2.5,0-5.4-0.4-8.7-1.2l-1.2-0.3l3.1-4.8c4,0.6,7.2,0.9,9.4,0.9c3.6,0,6.1-1.5,7.6-4.5
	c0.6-1.1,0.6-2.1,0-2.8c-0.5-0.6-1.8-1.3-3.9-2c-3.2-1.1-5.1-2.3-5.9-3.7c-0.7-1.4-0.5-3.4,0.9-5.9c1.7-3.3,3.9-5.7,6.8-7.3
	c2.8-1.6,6-2.4,9.4-2.4c2.4,0,5.3,0.3,8.6,1l1.2,0.3l-3,4.9c-4.2-0.5-7.3-0.8-9.2-0.8c-3.7,0-6.1,1.2-7.4,3.7
	c-0.6,1.2-0.5,2.1,0.1,2.7c0.6,0.6,2.3,1.4,5,2.5c2.6,1,4.3,2.2,4.9,3.4c0.6,1.2,0.2,3.2-1.2,5.9c-1.8,3.4-4.2,6.1-7.2,7.8
	C245.1,62.5,241.9,63.4,238.5,63.4z"/>
<path class="st1" d="M104.8,28.7h-6.4l8.9-17.2h2.9L109.7,0L97.3,11.5h3L73.7,63.1h7l5.9-11.5h6.7l-1.9,11.5h7.6l1.9-13.2
	c4.5-2.1,7.8-5.4,10.2-9.9C115,32.5,112.9,28.7,104.8,28.7z M103.9,40.1c-0.8,1.7-1.9,3-3.3,4c-1.3,1-2.8,1.5-4.5,1.5h-6.5l5.6-10.9
	h6.4c1.6,0,2.6,0.5,3,1.5C105,37.1,104.8,38.4,103.9,40.1z"/>
<polygon class="st0" points="85.8,28.7 78,28.7 71.7,42.4 65.4,28.7 57.6,28.7 68.3,49.2 52.4,80.3 49.4,80.3 49.3,91.8 62.2,80.3 
	59.4,80.3 "/>
</svg>
